<?xml version="1.0" standalone="no"?>
<!DOCTYPE svg PUBLIC "-//W3C//DTD SVG 20010904//EN"
 "http://www.w3.org/TR/2001/REC-SVG-20010904/DTD/svg10.dtd">
<svg version="1.0" xmlns="http://www.w3.org/2000/svg"
 width="117.000000pt" height="117.000000pt" viewBox="0 0 117.000000 117.000000"
 preserveAspectRatio="xMidYMid meet">
<metadata>
Created by potrace 1.16, written by Peter Selinger 2001-2019
</metadata>
<g transform="translate(0.000000,117.000000) scale(0.100000,-0.100000)"
fill="#000000" stroke="none">
<path d="M330 1040 c-42 -45 -87 -145 -96 -210 -4 -30 -13 -67 -20 -82 -8 -14
-16 -53 -20 -85 -4 -37 -15 -71 -32 -96 -23 -35 -37 -100 -25 -120 2 -4 12 -2
21 5 14 10 15 10 5 -2 -16 -18 -17 -44 -1 -34 7 4 8 3 4 -4 -4 -6 -4 -23 0
-37 5 -21 9 -24 16 -13 6 9 8 3 5 -20 l-4 -32 24 22 c25 24 30 33 11 22 -7 -4
-2 5 11 20 27 29 35 53 20 62 -5 3 -6 10 -3 16 4 6 0 14 -7 19 -11 7 -11 9 -1
9 7 0 10 5 7 10 -3 6 -2 10 4 10 12 0 2 32 -13 42 -6 4 4 10 22 14 24 5 30 9
20 15 -8 6 4 9 32 8 47 0 109 -22 151 -51 15 -11 3 -8 -31 7 -30 14 -64 24
-75 24 -13 -1 -8 -4 13 -10 17 -5 32 -13 32 -17 0 -4 16 -16 35 -26 19 -11 34
-21 32 -23 -2 -2 -17 3 -33 12 -45 23 -46 18 -7 -21 46 -46 94 -53 192 -29 38
9 78 14 89 11 19 -6 20 -3 15 86 -5 96 -9 164 -12 185 0 6 -13 26 -28 45 l-27
33 28 -25 c16 -14 35 -38 42 -55 10 -23 13 -25 14 -10 0 11 -9 35 -21 54 l-20
33 28 -20 c15 -11 33 -19 38 -19 13 1 64 -73 65 -93 0 -13 1 -13 10 0 16 24
12 -37 -6 -95 -18 -59 -11 -117 12 -108 11 4 15 15 12 34 -3 18 0 29 7 29 7 0
15 -16 18 -37 7 -38 2 -53 -15 -53 -6 0 -5 7 3 17 13 15 12 15 -7 3 l-22 -14
25 -37 c32 -48 25 -87 -23 -128 -46 -41 -80 -57 -134 -64 -32 -4 -52 -14 -67
-32 -34 -39 -28 -51 8 -16 21 21 40 31 62 31 41 0 106 33 149 74 42 41 57 103
57 233 0 100 7 140 26 163 22 25 95 176 97 201 4 31 -16 30 -100 -6 -102 -43
-165 -50 -282 -35 l-102 13 -55 76 c-64 87 -100 129 -126 142 -14 8 -24 4 -47
-21z m64 -16 c9 -8 14 -20 11 -25 -4 -5 -2 -9 2 -9 17 0 12 -40 -5 -41 -12 0
-11 -3 6 -9 31 -13 28 -17 -10 -13 -32 3 -31 2 7 -11 34 -12 36 -14 15 -16
-22 -2 -21 -3 10 -12 56 -16 53 -23 -8 -21 -51 1 -53 1 -17 -6 35 -6 85 -27
85 -34 0 -2 -17 -2 -37 0 l-38 3 30 -12 c35 -13 83 -45 52 -34 -56 19 -64 14
-13 -8 32 -14 64 -30 70 -37 6 -6 -3 -4 -21 5 -35 18 -59 22 -30 5 9 -6 15
-14 12 -19 -3 -5 -1 -11 5 -15 18 -11 11 -25 -12 -25 -33 0 -9 -18 32 -23 19
-3 4 -4 -34 -3 -38 1 -64 0 -56 -2 16 -6 -56 -32 -87 -32 -37 0 -91 62 -98
115 -13 85 24 215 77 272 25 27 32 28 52 7z"/>
</g>
</svg>
