<?xml version="1.0" standalone="no"?>
<!DOCTYPE svg PUBLIC "-//W3C//DTD SVG 20010904//EN"
 "http://www.w3.org/TR/2001/REC-SVG-20010904/DTD/svg10.dtd">
<svg version="1.0" xmlns="http://www.w3.org/2000/svg"
 width="108.000000pt" height="130.000000pt" viewBox="0 0 108.000000 130.000000"
 preserveAspectRatio="xMidYMid meet">
<metadata>
Created by potrace 1.16, written by Peter Selinger 2001-2019
</metadata>
<g transform="translate(0.000000,130.000000) scale(0.100000,-0.100000)"
fill="#000000" stroke="none">
<path d="M779 1209 l-39 -42 -82 -2 c-97 -3 -124 -9 -148 -30 -17 -15 -22 -14
-70 11 -62 33 -80 26 -93 -32 -9 -45 -2 -96 21 -139 9 -16 19 -57 23 -90 6
-52 4 -65 -17 -104 -13 -25 -24 -51 -24 -57 0 -6 -25 -44 -56 -85 -30 -41 -69
-96 -86 -124 -18 -27 -33 -52 -34 -54 -2 -2 -14 9 -28 24 l-25 26 -17 -25
c-15 -24 -15 -36 -4 -124 13 -106 42 -175 91 -217 24 -19 39 -22 108 -22 62 0
78 2 66 11 -12 9 -13 17 -2 46 19 53 25 60 61 60 29 0 34 4 40 30 4 21 -2 48
-19 86 l-25 56 23 -14 c27 -18 76 -105 77 -135 0 -13 -9 -32 -19 -42 -19 -19
-19 -19 14 -25 19 -4 44 -15 57 -26 23 -20 23 -20 3 -32 -11 -7 -36 -11 -55
-11 -35 2 -35 2 5 -6 43 -9 65 -5 65 13 0 6 7 2 15 -8 8 -11 15 -17 15 -14 0
14 -33 85 -47 100 -20 22 -10 56 12 38 7 -6 24 -10 37 -8 19 2 24 11 30 51 3
27 12 55 18 63 10 11 9 14 -3 14 -8 0 -30 17 -49 38 -18 21 -52 49 -75 62 -24
13 -43 28 -43 34 0 5 -10 21 -22 34 l-23 24 25 -7 c14 -3 40 -13 59 -22 18 -8
48 -15 67 -15 18 0 38 -6 44 -13 6 -8 18 -11 26 -8 8 3 20 0 27 -6 18 -14 70
1 112 34 19 14 37 25 41 25 4 0 18 10 31 22 l23 21 0 -22 c0 -12 -18 -50 -40
-83 -22 -34 -40 -69 -40 -78 0 -9 -5 -21 -12 -28 -9 -9 -8 -16 5 -30 9 -10 17
-25 17 -34 0 -11 7 -14 24 -11 22 4 25 1 29 -28 3 -24 4 -18 6 21 1 30 6 75
11 100 4 25 17 91 27 147 l19 101 -27 109 c-22 87 -26 116 -18 149 6 29 4 58
-5 95 -7 30 -13 80 -14 112 -1 65 -27 130 -55 135 -12 2 -33 -12 -58 -39z
m111 -332 c-10 -72 -51 -152 -77 -152 -6 0 -15 -4 -20 -9 -5 -5 -2 -6 7 -1 8
4 3 -5 -12 -20 -23 -24 -37 -29 -89 -33 -55 -4 -69 -1 -126 28 -45 23 -78 50
-109 88 -24 29 -44 57 -44 60 1 48 63 23 68 -27 3 -30 6 -33 30 -28 15 2 35 7
44 11 13 6 18 1 21 -21 4 -27 4 -26 3 3 -1 17 2 35 7 40 4 5 14 18 22 29 14
19 14 18 15 -16 0 -20 3 -38 6 -41 3 -3 28 1 55 10 48 15 50 18 45 45 -5 25
-3 28 12 22 9 -4 38 -9 64 -12 l46 -4 -1 49 c-1 30 4 56 12 66 25 30 34 -5 21
-87z"/>
</g>
</svg>
